<?xml version="1.0" encoding="UTF-8"?>
<!-- Created with Inkscape (http://www.inkscape.org/) -->
<svg width="125.22mm" height="131.35mm" version="1.1" viewBox="0 0 125.22 131.35" xmlns="http://www.w3.org/2000/svg">
 <g transform="translate(-45.496 -42.22)" fill="none" stroke="#000" stroke-width="7.5">
  <path d="m113.5 76.132c-7.4942-5.228-12.432-4.0826-15.834-2.0002 0 0 7.8549 4.8371 6.4067 12.895l-1.9136 7.0678s-6.5382 16.655-2.0324 29.997c1.4617 4.555 3.6044 6.6704 3.6044 6.6704-10.109 3.6922-8.4544 13.581-14.025 19.022 6.6666-1.4804 14.61-10.974 13.862-3.6912-2.9438 7.9056 4.5434 19.878 4.5434 19.878s7.4872-11.972 4.5434-19.878c-0.74807-7.2828 7.1951 2.2109 13.862 3.6912-5.5706-5.441-3.9162-15.33-14.025-19.022 0 0 2.1428-2.1154 3.6044-6.6704 4.5058-13.341-2.0324-29.997-2.0324-29.997l-1.9136-7.0678c0.0518-0.84868 0.37445-2.6269 1.0456-3.1316 2.8863-1.1428 2.5989-2.7858 3.865-4.9989 0 0-2.4714-2.0054-3.5597-2.7646z"/>
  <path d="m115.98 124.2c50.34 2.0048 80.095-63.666 4.1651-75.562 35.965 30.034 11.976 52.655-6.0831 45.461"/>
  <path d="m100.24 124.2c-50.34 2.0048-80.095-63.666-4.1651-75.562-35.965 30.034-11.976 52.655 6.0831 45.461"/>
 </g>
</svg>
